<svg width="64" height="64" fill="none" xmlns="http://www.w3.org/2000/svg"><path fill-rule="evenodd" clip-rule="evenodd" d="M32 64c17.673 0 32-14.327 32-32C64 14.327 49.673 0 32 0 14.327 0 0 14.327 0 32c0 17.673 14.327 32 32 32Z" fill="#99C3FF"/><mask id="a" style="mask-type:alpha" maskUnits="userSpaceOnUse" x="0" y="0" width="64" height="64"><path fill-rule="evenodd" clip-rule="evenodd" d="M32 64c17.673 0 32-14.327 32-32C64 14.327 49.673 0 32 0 14.327 0 0 14.327 0 32c0 17.673 14.327 32 32 32Z" fill="#fff"/></mask><g mask="url(#a)"><path fill-rule="evenodd" clip-rule="evenodd" d="M44.183 31.332c-1.059 3.587-3.218 6.569-6.003 8.376l.14 1.548-.001.063-1.47 12.758h-9.326l-.04-.268-1.802-12.512.067-1.565c-2.786-1.794-4.95-4.76-6.02-8.333a1.202 1.202 0 0 1-.67.203c-.704 0-1.263-.609-1.263-1.346v-4.174c0-.737.557-1.346 1.261-1.347C19.717 17.029 25.223 11 31.946 11c6.723 0 12.23 6.032 12.89 13.74.035-.004.07-.005.107-.005.706 0 1.264.609 1.264 1.347v4.174c0 .738-.558 1.346-1.264 1.346-.287 0-.55-.1-.76-.27Z" fill="#F1F1F1"/><path fill-rule="evenodd" clip-rule="evenodd" d="M38.176 40.125c-.056 2.938-2.8 5.952-6.175 5.952-3.391 0-6.144-3.04-6.176-5.99-1.757.439-4.44 1.764-6.653 3.98-2.143 2.144-3.848 5.369-3.848 7.87V67h33.353V51.937c0-2.506-1.741-5.736-3.924-7.884-2.183-2.147-4.809-3.455-6.577-3.928Z" fill="#0056B4"/><path fill-rule="evenodd" clip-rule="evenodd" d="m41.065 15.524.08 1.224 1.166 1.35.179.913.147 1.226.71.961-.08 1.046.071 1.23.892 1.188v1.039l1.03 1.154.291-1.136-.128-1.094-.175-1.047.303-1.116-.412-1.116.45-1.163-.166-1.029-.18-1.088.18-1.212-.284-.743-.549-1.238-.218-1.127-1.026-.904-.14-.974-.895-1.056-1.664-.35-.817-.772-1.11-.497-1.126-.716-1.274.198-1.098-.269-1.068-.389-1.12-.039-1.117.203-1.12-.258-1.103.254-1.125.035-1.046.463-1.115.171-1.107.277-.99.567-.797.855-1.093.428-.728.895-.655.931-.618.947-.686.92-.399 1.073-.075 1.169.017 1.148-.865.98.323 1.176-.253 1.108.377 1.12-.422 1.138.47 1.084v1.125L19.138 27l.739-.954.482-.996.301-1.058-.176-1.273.467-1.015.855-.826-.143-1.002.508-.985.46-1.008v-.975l.883-1.322 1.782.186 1.03.785 1.168-.511 1.103.065 1.086.478 1.11.265 1.12-.324 1.117.202 1.099-.414 1.125.194 1.066-.622 1.18.662 1.068-.513 2.497-.515Z" fill="#8B5C1E"/><path fill-rule="evenodd" clip-rule="evenodd" d="M27.372 27.182c-.851.072-1.09-1.338-.833-2.26.048-.174.33-.968.83-.968.497 0 .718.434.748.509.367.897.187 2.64-.745 2.719ZM37.246 27.182c.852.072 1.09-1.338.833-2.26-.048-.174-.33-.968-.829-.968-.498 0-.718.434-.748.509-.367.897-.187 2.64.744 2.719Z" fill="#262626"/><path d="M32.625 28.571c.509-.09.857-.034.981.144.47.673.32 1.384-.486 1.968-.424.307-1.008.415-1.317.256-.151-.078-.328.001-.395.177-.066.176.002.382.153.46.51.263 1.296.117 1.874-.302 1.096-.793 1.347-1.98.635-2.998-.301-.43-.834-.519-1.536-.393-.163.03-.275.207-.25.397.025.19.178.32.34.291ZM36.306 33.193c-.03.066-.099.193-.209.36-.187.283-.42.567-.705.831-.848.788-1.952 1.244-3.356 1.203-1.37-.041-2.468-.49-3.329-1.214a4.842 4.842 0 0 1-.786-.834 2.913 2.913 0 0 1-.233-.36.337.337 0 0 0-.444-.146.316.316 0 0 0-.151.43c.048.095.143.252.288.448.238.324.534.646.891.947.973.817 2.215 1.325 3.744 1.37 1.592.047 2.864-.479 3.835-1.381.325-.302.591-.625.805-.949.13-.197.214-.353.257-.449a.317.317 0 0 0-.171-.422.336.336 0 0 0-.436.166Z" fill="#262626"/><path fill-rule="evenodd" clip-rule="evenodd" d="M27.059 34.516c0-1.092 2.212-1.362 4.94-1.362 2.73 0 4.942.27 4.942 1.362 0 1.093-1.366 3.349-4.941 3.349-3.575 0-4.941-2.256-4.941-3.349Zm4.793-2.622c-1.912 0-2.928.549-5.722 1.319-3.97 1.094-5.804-1.971-6.452-4.982-.372-1.728-.649-1.001-.649-1.001 0 11.802 7.913 15.788 13.076 15.788 5.245 0 12.866-3.834 12.866-16.018 0-.271-.525-.138-.618.23-.545 2.159.07 7.655-6.96 5.983-2.462-1.034-3.629-1.32-5.541-1.32Z" fill="#7D4C00"/><path fill-rule="evenodd" clip-rule="evenodd" d="M43.165 58h-10.33a.84.84 0 0 1-.835-.847v-5.639c0-.468.373-.848.834-.848h10.331c.461 0 .835.38.835.848v5.639a.84.84 0 0 1-.835.847" fill="#fff"/><path fill-rule="evenodd" clip-rule="evenodd" d="M38.62 51.83h-1.07a.143.143 0 0 1-.144-.142v-.18c0-.078.064-.142.144-.142h1.07c.08 0 .143.064.143.143v.18a.143.143 0 0 1-.143.142" fill="#262626"/><path fill-rule="evenodd" clip-rule="evenodd" d="M37.775 51.667h.62V50h-.62v1.667Z" fill="#6A6A6A"/><path fill-rule="evenodd" clip-rule="evenodd" d="M38.127 56.665a2.332 2.332 0 1 1 0-4.665 2.332 2.332 0 0 1 0 4.665ZM34.666 55.351l.477-1.18h.458l-.476 1.18h-.459ZM40.549 55.351l.47-1.18h.25l-.47 1.18h-.25ZM41.475 55.351l.47-1.18h.133l-.47 1.18h-.133Z" fill="#C30000"/><path fill-rule="evenodd" clip-rule="evenodd" d="M40.115 54.171H39.7s-.028 0-.039.026l-.229.702-.23-.702c-.01-.026-.038-.026-.038-.026h-.797a.032.032 0 0 0-.032.032v.238c0-.189-.201-.27-.32-.27-.263 0-.44.174-.495.439-.003-.176-.018-.239-.065-.303a.302.302 0 0 0-.087-.08c-.07-.041-.134-.056-.27-.056h-.159s-.029 0-.039.026l-.145.359v-.353a.032.032 0 0 0-.031-.032h-.369s-.028 0-.039.026l-.15.373s-.016.038.019.038h.142v.712c0 .017.013.031.031.031h.366a.032.032 0 0 0 .031-.031v-.712h.143c.081 0 .099.002.13.017a.09.09 0 0 1 .047.038c.019.037.024.08.024.209v.448c0 .017.014.031.031.031h.35s.04 0 .056-.039l.078-.192a.574.574 0 0 0 .484.231h.046s.04 0 .056-.039l.135-.335v.343c0 .017.014.031.032.031h.357s.04 0 .056-.039c0 0 .143-.355.143-.358.006-.03-.031-.03-.031-.03h-.128v-.609l.402.997c.015.04.055.04.055.04h.422s.04 0 .056-.04l.445-1.102c.015-.039-.03-.039-.03-.039Zm-1.78.754h-.24a.173.173 0 1 1 0-.347h.067c.095 0 .173.078.173.174v.173Z" fill="#fff"/></g></svg>